<svg width="34" height="33" viewBox="0 0 34 33" fill="none" xmlns="http://www.w3.org/2000/svg">
<path d="M27.3184 14.1733H18.0684C17.455 14.1733 16.8669 14.4169 16.4332 14.8506C15.9995 15.2843 15.7559 15.8725 15.7559 16.4858V23.4233H3.03711V10.2421L16.9121 2.77268L31.3999 10.5658L32.4868 8.53081L17.4555 0.437058C17.2883 0.347981 17.1016 0.301392 16.9121 0.301392C16.7226 0.301392 16.536 0.347981 16.3687 0.437058L1.33742 8.53081C1.15279 8.62912 0.998291 8.77567 0.890374 8.95485C0.782457 9.13404 0.725168 9.33914 0.724609 9.54831V32.6733H3.03711V25.7358H30.7871V32.6733H33.0996V19.9546C33.0996 18.4213 32.4905 16.9508 31.4063 15.8666C30.3221 14.7824 28.8516 14.1733 27.3184 14.1733ZM18.0684 23.4233V16.4858H27.3184C28.2383 16.4858 29.1206 16.8513 29.7711 17.5018C30.4217 18.1523 30.7871 19.0346 30.7871 19.9546V23.4233H18.0684Z" fill="#3468C0"/>
</svg>
